<svg width="512" height="512" viewBox="0 0 512 512" fill="none" xmlns="http://www.w3.org/2000/svg">
<g clip-path="url(#clip0_93_2533)">
<path d="M25.0008 512C20.0556 512.001 15.2212 510.535 11.1091 507.788C6.99698 505.041 3.79195 501.136 1.89938 496.568C0.00680292 491.999 -0.488288 486.971 0.476728 482.121C1.44174 477.271 3.82351 472.816 7.32077 469.32L469.321 7.31988C474.01 2.63085 480.369 -0.00341797 487.001 -0.00341797C493.632 -0.00341797 499.992 2.63085 504.681 7.31988C509.37 12.0089 512.004 18.3686 512.004 24.9999C512.004 31.6312 509.37 37.9909 504.681 42.6799L42.6808 504.68C40.3611 507.004 37.6051 508.848 34.5711 510.104C31.537 511.36 28.2846 512.004 25.0008 512Z" fill="white"/>
<path d="M486.999 512C483.716 512.004 480.463 511.36 477.429 510.104C474.395 508.848 471.639 507.004 469.319 504.68L7.31939 42.6799C2.63036 37.9909 -0.00390625 31.6312 -0.00390625 24.9999C-0.00390625 18.3686 2.63036 12.0089 7.31939 7.31988C12.0084 2.63085 18.3681 -0.00341797 24.9994 -0.00341797C31.6307 -0.00341797 37.9904 2.63085 42.6794 7.31988L504.679 469.32C508.177 472.816 510.558 477.271 511.523 482.121C512.488 486.971 511.993 491.999 510.101 496.568C508.208 501.136 505.003 505.041 500.891 507.788C496.779 510.535 491.945 512.001 486.999 512V512Z" fill="white"/>
</g>
<defs>
<clipPath id="clip0_93_2533">
<rect width="512" height="512" fill="white"/>
</clipPath>
</defs>
</svg>
