<svg width="12" height="7" viewBox="0 0 12 7" fill="none" xmlns="http://www.w3.org/2000/svg">
<path d="M10.8722 0.292227C10.7798 0.199592 10.67 0.126099 10.5491 0.0759552C10.4282 0.025811 10.2986 -3.79043e-08 10.1678 -4.36249e-08C10.0369 -4.93454e-08 9.90729 0.025811 9.78641 0.0759552C9.66553 0.126099 9.55572 0.199592 9.46327 0.292227L5.58615 4.16935L1.70903 0.292227C1.52219 0.105388 1.26879 0.000422684 1.00456 0.000422673C0.740327 0.000422661 0.486918 0.105388 0.300079 0.292227C0.11324 0.479066 0.00827669 0.732473 0.00827668 0.996703C0.00827666 1.26093 0.11324 1.51434 0.300079 1.70118L4.88667 6.28777C4.97912 6.38041 5.08893 6.4539 5.20981 6.50405C5.33069 6.55419 5.46028 6.58 5.59115 6.58C5.72202 6.58 5.85161 6.55419 5.97249 6.50405C6.09337 6.4539 6.20318 6.38041 6.29563 6.28777L10.8822 1.70118C11.2619 1.32146 11.2619 0.681938 10.8722 0.292227Z" fill="white"/>
</svg>
